<?xml version="1.0" standalone="no"?>
<!DOCTYPE svg PUBLIC "-//W3C//DTD SVG 20010904//EN"
 "http://www.w3.org/TR/2001/REC-SVG-20010904/DTD/svg10.dtd">
<svg version="1.0" xmlns="http://www.w3.org/2000/svg"
 width="500.000000pt" height="500.000000pt" viewBox="0 0 500.000000 500.000000"
 preserveAspectRatio="xMidYMid meet">

<g transform="translate(0.000000,500.000000) scale(0.100000,-0.100000)"
fill="#000000" stroke="none">
<path d="M2310 4489 c-659 -68 -1235 -466 -1525 -1054 -92 -187 -146 -356
-180 -565 -20 -127 -20 -440 0 -575 121 -799 732 -1436 1530 -1595 137 -28
462 -39 600 -21 432 57 815 244 1119 547 395 395 592 924 555 1492 -45 685
-464 1300 -1087 1594 -316 150 -671 212 -1012 177z m390 -190 c290 -36 568
-142 800 -307 228 -162 455 -435 569 -684 113 -248 155 -446 155 -733 1 -175
-8 -257 -40 -390 -164 -672 -700 -1179 -1379 -1307 -164 -30 -435 -31 -606 0
-688 124 -1247 662 -1390 1338 -91 435 -13 900 214 1264 75 120 160 224 272
335 265 263 580 419 963 479 107 17 329 20 442 5z"/>
<path d="M2298 3503 l-438 -3 0 -130 0 -130 695 0 c762 0 748 1 779 -59 12
-23 16 -63 16 -179 0 -155 -9 -206 -40 -222 -10 -6 -71 -10 -134 -10 l-116 0
0 -131 0 -131 158 4 c147 3 160 5 207 30 83 43 174 159 175 221 0 9 5 17 10
17 13 0 13 312 0 405 -20 135 -108 245 -237 296 -55 22 -71 23 -348 24 -159 1
-487 0 -727 -2z"/>
<path d="M1860 2607 l0 -292 -235 -235 -235 -235 92 -92 93 -93 440 440 440
440 440 -440 440 -440 92 92 93 93 -526 526 c-290 290 -533 526 -541 525 -8
-1 -86 -74 -174 -162 l-159 -159 0 163 0 162 -130 0 -130 0 0 -293z"/>
<path d="M2210 2040 l0 -110 100 0 100 0 0 110 0 110 -100 0 -100 0 0 -110z"/>
<path d="M2450 2040 l0 -110 100 0 100 0 0 110 0 110 -100 0 -100 0 0 -110z"/>
<path d="M2210 1800 l0 -90 100 0 100 0 0 90 0 90 -100 0 -100 0 0 -90z"/>
<path d="M2450 1800 l0 -90 100 0 100 0 0 90 0 90 -100 0 -100 0 0 -90z"/>
</g>
</svg>
